HIERARCHY
ROOT Hips
{
	OFFSET 0.000000 0.000000 0.000000
	CHANNELS 6 Xposition Yposition Zposition Zrotation Yrotation Xrotation 
	JOINT LowerBack
	{
		OFFSET 0.000000 0.000000 0.000000
		CHANNELS 3 Zrotation Yrotation Xrotation
		JOINT Spine
		{
			OFFSET 0.028270 2.035590 -0.193380
			CHANNELS 3 Zrotation Yrotation Xrotation
			JOINT Spine1
			{
				OFFSET 0.056720 2.048850 -0.042750
				CHANNELS 3 Zrotation Yrotation Xrotation
				JOINT Neck
				{
					OFFSET 0.000000 0.000000 0.000000
					CHANNELS 3 Zrotation Yrotation Xrotation
					JOINT Neck1
					{
						OFFSET -0.054170 1.746240 0.172020
						CHANNELS 3 Zrotation Yrotation Xrotation
						JOINT Head
						{
							OFFSET 0.104070 1.761360 -0.123970
							CHANNELS 3 Zrotation Yrotation Xrotation
							End Site
							{
								OFFSET 0.000000 0.000000 0.000000
							}
						}
					}
				}
				JOINT LeftShoulder
				{
					OFFSET 0.000000 0.000000 0.000000
					CHANNELS 3 Zrotation Yrotation Xrotation
					JOINT LeftArm
					{
						OFFSET 3.362410 1.200890 -0.311210
						CHANNELS 3 Zrotation Yrotation Xrotation
						JOINT LeftForeArm
						{
							OFFSET 4.983000 -0.000000 -0.000000
							CHANNELS 3 Zrotation Yrotation Xrotation
							JOINT LeftHand
							{
								OFFSET 3.483560 -0.000000 -0.000000
								CHANNELS 3 Zrotation Yrotation Xrotation
								JOINT LeftFingerBase
								{
									OFFSET 0.000000 0.000000 0.000000
									CHANNELS 3 Zrotation Yrotation Xrotation
									JOINT LeftHandIndex1
									{
										OFFSET 0.715260 -0.000000 -0.000000
										CHANNELS 3 Zrotation Yrotation Xrotation
										End Site
										{
											OFFSET 0.000000 0.000000 0.000000
										}
									}
								}
								JOINT LThumb
								{
									OFFSET 0.000000 0.000000 0.000000
									CHANNELS 3 Zrotation Yrotation Xrotation
									End Site
									{
										OFFSET 0.000000 0.000000 0.000000
									}
								}
							}
						}
					}
				}
				JOINT RightShoulder
				{
					OFFSET 0.000000 0.000000 0.000000
					CHANNELS 3 Zrotation Yrotation Xrotation
					JOINT RightArm
					{
						OFFSET -3.136600 1.374050 -0.404650
						CHANNELS 3 Zrotation Yrotation Xrotation
						JOINT RightForeArm
						{
							OFFSET -5.241900 -0.000000 -0.000000
							CHANNELS 3 Zrotation Yrotation Xrotation
							JOINT RightHand
							{
								OFFSET -3.444170 -0.000000 -0.000000
								CHANNELS 3 Zrotation Yrotation Xrotation
								JOINT RightFingerBase
								{
									OFFSET 0.000000 0.000000 0.000000
									CHANNELS 3 Zrotation Yrotation Xrotation
									JOINT RightHandIndex1
									{
										OFFSET -0.622530 -0.000000 -0.000000
										CHANNELS 3 Zrotation Yrotation Xrotation
										End Site
										{
											OFFSET 0.000000 0.000000 0.000000
										}
									}
								}
								JOINT RThumb
								{
									OFFSET 0.000000 0.000000 0.000000
									CHANNELS 3 Zrotation Yrotation Xrotation
									End Site
									{
										OFFSET 0.000000 0.000000 0.000000
									}
								}
							}
						}
					}
				}
			}
		}
	}
}
}
MOTION
Frames: 6
Frame Time: 0.008333
3.500124 17.303848 2.380455 179.262200 -84.234777 -166.115862 1.442989 -1.967276 -1.952953 -0.596244 -2.215006 -3.385959 -7.798749 -2.334088 -0.023384 10.228980 -2.845428 -4.134727 -4.499422 -0.362910 0.880255 0.000000 0.000000 0.000000 -4.268175 1.318549 1.906000 -63.664039 -22.304981 20.696649 -3.004140 -36.871928 -0.014283 5.506248 0.020297 -0.006353 -0.142939 0.174218 0.000000 0.000000 0.000000 0.000000 0.000000 0.000000 0.000000 19.684758 -1.801184 1.516259 67.673375 2.509332 -10.559693 3.778633 10.347873 0.009671 0.077453 5.681329 -0.000293 0.090545 -0.071473 0.000000 0.000000 0.000000 0.000000 0.000000 0.000000 0.000000 
3.322642 17.280524 2.364507 178.793212 -84.420892 -165.634465 1.551750 -2.118580 -1.980974 -0.559446 -2.372428 -3.373181 -7.783103 -2.484821 0.015897 10.239177 -3.321258 -4.220598 -4.467049 -0.360212 0.862164 0.000000 0.000000 0.000000 -3.970238 1.000232 1.871409 -63.148752 -23.365165 20.736258 -2.955970 -38.202958 -0.015293 5.549325 -0.024168 -0.009090 -0.147154 0.185761 0.000000 0.000000 0.000000 0.000000 0.000000 0.000000 0.000000 19.590143 -2.368182 1.558628 67.116233 1.503904 -10.600540 3.828684 10.334171 0.009953 0.060043 5.693820 -0.001403 0.093651 -0.068483 -0.000000 0.000000 0.000000 0.000000 0.000000 0.000000 0.000000 
3.144788 17.252161 2.345895 177.727132 -84.597668 -164.546710 1.596003 -2.272937 -2.019725 -0.535619 -2.528326 -3.361138 -7.761057 -2.633771 0.060489 10.244891 -3.817915 -4.314934 -4.431312 -0.357249 0.841714 0.000000 0.000000 0.000000 -3.645954 0.695815 1.834696 -62.588660 -24.412496 20.728536 -2.903010 -39.504731 -0.016359 5.598001 -0.059363 -0.011530 -0.151070 0.197273 0.000000 0.000000 0.000000 0.000000 0.000000 0.000000 0.000000 19.481290 -2.950925 1.597076 66.574611 0.532391 -10.658072 3.873978 10.336503 0.010281 0.021515 5.743879 -0.003512 0.096744 -0.065828 -0.000000 0.000000 0.000000 0.000000 0.000000 0.000000 0.000000 
2.966528 17.219013 2.324567 175.964797 -84.768288 -162.759994 1.573826 -2.433804 -2.062431 -0.525236 -2.685736 -3.348510 -7.732293 -2.783951 0.110308 10.245582 -4.330265 -4.416476 -4.392328 -0.354017 0.819146 0.000000 0.000000 0.000000 -3.298016 0.405455 1.796575 -61.981457 -25.442836 20.673317 -2.845125 -40.774633 -0.017478 5.653311 -0.089898 -0.013673 -0.154652 0.208745 0.000000 0.000000 0.000000 0.000000 0.000000 0.000000 0.000000 19.358632 -3.547135 1.631556 66.050610 -0.400695 -10.756419 3.914602 10.343805 0.010640 -0.030264 5.817153 -0.006419 0.099789 -0.063460 -0.000000 0.000000 0.000000 0.000000 0.000000 0.000000 0.000000 
2.787885 17.181491 2.300548 173.446713 -84.937250 -160.221976 1.489108 -2.604715 -2.102986 -0.527437 -2.848258 -3.334108 -7.696386 -2.938972 0.165134 10.240174 -4.853438 -4.523810 -4.350107 -0.350508 0.794795 0.000000 0.000000 0.000000 -2.931024 0.127955 1.757679 -61.325094 -26.451206 20.570074 -2.782147 -42.009660 -0.018652 5.716793 -0.120261 -0.016019 -0.157861 0.220190 0.000000 0.000000 0.000000 0.000000 0.000000 0.000000 0.000000 19.221344 -4.155066 1.662096 65.544992 -1.290192 -10.914543 3.950956 10.343188 0.011015 -0.087612 5.899182 -0.009626 0.102767 -0.061335 -0.000000 0.000000 0.000000 0.000000 0.000000 0.000000 0.000000 
2.608877 17.140063 2.274053 170.162504 -85.107984 -156.930836 1.351997 -2.787729 -2.131792 -0.540094 -3.018408 -3.316318 -7.653509 -3.101409 0.223665 10.228143 -5.380507 -4.634705 -4.305024 -0.346744 0.769176 0.000000 0.000000 0.000000 -2.552186 -0.139917 1.719155 -60.618481 -27.433947 20.416841 -2.714189 -43.205186 -0.019877 5.788098 -0.153624 -0.018468 -0.160644 0.231634 -0.000000 0.000000 0.000000 0.000000 0.000000 0.000000 0.000000 19.070317 -4.770060 1.689311 65.057220 -2.137015 -11.153572 3.983344 10.332354 0.011375 -0.140267 5.970603 -0.012634 0.105639 -0.059420 -0.000000 0.000000 0.000000 0.000000 0.000000 0.000000 0.000000 
